<svg xmlns="http://www.w3.org/2000/svg" xmlns:xlink="http://www.w3.org/1999/xlink" id="body_1" preserveAspectRatio="xMinYMin meet" viewBox="0 0 793 1121"><defs><clipPath id="1"><path id="" clip-rule="evenodd" transform="matrix(1 0 0 1 0 0)" d="M0 841L0 -0.9199829L0 -0.9199829L595.32 -0.9199829L595.32 -0.9199829L595.32 841L595.32 841L0 841z" /></clipPath><clipPath id="2"><path id="" clip-rule="evenodd" transform="matrix(1 0 0 1 0 0)" d="M0 840.9999L595.32 840.9999L595.32 840.9999L595.32 -0.9200439L595.32 -0.9200439L0 -0.9200439z" /></clipPath><clipPath id="3"><path id="" clip-rule="evenodd" transform="matrix(1 0 0 1 0 0)" d="M36.6 82.12L558.8199 82.12L558.8199 82.12L558.8199 27.40002L558.8199 27.40002L36.6 27.40002z" /></clipPath><clipPath id="4"><path id="" clip-rule="evenodd" transform="matrix(1 0 0 1 0 0)" d="M36.6 82.12L558.72 82.12L558.72 82.12L558.72 27.40002L558.72 27.40002L36.6 27.40002z" /></clipPath><clipPath id="5"><path id="" clip-rule="evenodd" transform="matrix(1 0 0 1 0 0)" d="M36.6 82.12L558.72 82.12L558.72 82.12L558.72 27.40002L558.72 27.40002L36.6 27.40002z" /></clipPath><clipPath id="6"><path id="" clip-rule="evenodd" transform="matrix(1 0 0 1 0 0)" d="M36.6 82.12L558.8199 82.12L558.8199 82.12L558.8199 27.40002L558.8199 27.40002L36.6 27.40002z" /></clipPath><clipPath id="7"><path id="" clip-rule="evenodd" transform="matrix(1 0 0 1 0 0)" d="M36.6 99.65997L558.8199 99.65997L558.8199 99.65997L558.8199 82.11597L558.8199 82.11597L36.6 82.11597z" /></clipPath><clipPath id="8"><path id="" clip-rule="evenodd" transform="matrix(1 0 0 1 0 0)" d="M36.6 99.65997L558.8199 99.65997L558.8199 99.65997L558.8199 82.11597L558.8199 82.11597L36.6 82.11597z" /></clipPath><clipPath id="9"><path id="" clip-rule="evenodd" transform="matrix(1 0 0 1 0 0)" d="M36.6 117.66L107.184 117.66L107.184 117.66L107.184 99.65997L107.184 99.65997L36.6 99.65997z" /></clipPath><clipPath id="10"><path id="" clip-rule="evenodd" transform="matrix(1 0 0 1 0 0)" d="M36.6 117.66L107.184 117.66L107.184 117.66L107.184 99.65997L107.184 99.65997L36.6 99.65997z" /></clipPath><clipPath id="11"><path id="" clip-rule="evenodd" transform="matrix(1 0 0 1 0 0)" d="M36.6 117.66L107.184 117.66L107.184 117.66L107.184 99.65997L107.184 99.65997L36.6 99.65997z" /></clipPath><clipPath id="12"><path id="" clip-rule="evenodd" transform="matrix(1 0 0 1 0 0)" d="M36.6 117.66L107.184 117.66L107.184 117.66L107.184 99.65997L107.184 99.65997L36.6 99.65997z" /></clipPath><clipPath id="13"><path id="" clip-rule="evenodd" transform="matrix(1 0 0 1 0 0)" d="M36.6 117.66L107.184 117.66L107.184 117.66L107.184 99.65997L107.184 99.65997L36.6 99.65997z" /></clipPath><clipPath id="14"><path id="" clip-rule="evenodd" transform="matrix(1 0 0 1 0 0)" d="M107.18 117.66L270.28 117.66L270.28 117.66L270.28 99.65997L270.28 99.65997L107.18 99.65997z" /></clipPath><clipPath id="15"><path id="" clip-rule="evenodd" transform="matrix(1 0 0 1 0 0)" d="M107.18 117.66L270.28 117.66L270.28 117.66L270.28 99.65997L270.28 99.65997L107.18 99.65997z" /></clipPath><clipPath id="16"><path id="" clip-rule="evenodd" transform="matrix(1 0 0 1 0 0)" d="M107.18 117.66L270.28 117.66L270.28 117.66L270.28 99.65997L270.28 99.65997L107.18 99.65997z" /></clipPath><clipPath id="17"><path id="" clip-rule="evenodd" transform="matrix(1 0 0 1 0 0)" d="M270.29 117.66L341.474 117.66L341.474 117.66L341.474 99.65997L341.474 99.65997L270.29 99.65997z" /></clipPath><clipPath id="18"><path id="" clip-rule="evenodd" transform="matrix(1 0 0 1 0 0)" d="M270.29 117.66L341.474 117.66L341.474 117.66L341.474 99.65997L341.474 99.65997L270.29 99.65997z" /></clipPath><clipPath id="19"><path id="" clip-rule="evenodd" transform="matrix(1 0 0 1 0 0)" d="M270.29 117.66L341.474 117.66L341.474 117.66L341.474 99.65997L341.474 99.65997L270.29 99.65997z" /></clipPath><clipPath id="20"><path id="" clip-rule="evenodd" transform="matrix(1 0 0 1 0 0)" d="M341.47 117.66L468.21 117.66L468.21 117.66L468.21 99.65997L468.21 99.65997L341.47 99.65997z" /></clipPath><clipPath id="21"><path id="" clip-rule="evenodd" transform="matrix(1 0 0 1 0 0)" d="M341.47 117.66L468.21 117.66L468.21 117.66L468.21 99.65997L468.21 99.65997L341.47 99.65997z" /></clipPath><clipPath id="22"><path id="" clip-rule="evenodd" transform="matrix(1 0 0 1 0 0)" d="M341.47 117.66L468.21 117.66L468.21 117.66L468.21 99.65997L468.21 99.65997L341.47 99.65997z" /></clipPath><clipPath id="23"><path id="" clip-rule="evenodd" transform="matrix(1 0 0 1 0 0)" d="M341.47 117.66L468.21 117.66L468.21 117.66L468.21 99.65997L468.21 99.65997L341.47 99.65997z" /></clipPath><clipPath id="24"><path id="" clip-rule="evenodd" transform="matrix(1 0 0 1 0 0)" d="M468.22 180.66L558.82 180.66L558.82 180.66L558.82 99.65997L558.82 99.65997L468.22 99.65997z" /></clipPath><clipPath id="25"><path id="" clip-rule="evenodd" transform="matrix(1 0 0 1 0 0)" d="M468.22 180.66L558.82 180.66L558.82 180.66L558.82 99.65997L558.82 99.65997L468.22 99.65997z" /></clipPath><clipPath id="26"><path id="" clip-rule="evenodd" transform="matrix(1 0 0 1 0 0)" d="M36.6 135.66L107.184 135.66L107.184 135.66L107.184 117.66L107.184 117.66L36.6 117.66z" /></clipPath><clipPath id="27"><path id="" clip-rule="evenodd" transform="matrix(1 0 0 1 0 0)" d="M36.6 135.66L107.184 135.66L107.184 135.66L107.184 117.66L107.184 117.66L36.6 117.66z" /></clipPath><clipPath id="28"><path id="" clip-rule="evenodd" transform="matrix(1 0 0 1 0 0)" d="M36.6 135.66L107.184 135.66L107.184 135.66L107.184 117.66L107.184 117.66L36.6 117.66z" /></clipPath><clipPath id="29"><path id="" clip-rule="evenodd" transform="matrix(1 0 0 1 0 0)" d="M36.6 135.66L107.184 135.66L107.184 135.66L107.184 117.66L107.184 117.66L36.6 117.66z" /></clipPath><clipPath id="30"><path id="" clip-rule="evenodd" transform="matrix(1 0 0 1 0 0)" d="M36.6 135.66L107.184 135.66L107.184 135.66L107.184 117.66L107.184 117.66L36.6 117.66z" /></clipPath><clipPath id="31"><path id="" clip-rule="evenodd" transform="matrix(1 0 0 1 0 0)" d="M107.18 135.66L270.28 135.66L270.28 135.66L270.28 117.66L270.28 117.66L107.18 117.66z" /></clipPath><clipPath id="32"><path id="" clip-rule="evenodd" transform="matrix(1 0 0 1 0 0)" d="M107.18 135.66L270.28 135.66L270.28 135.66L270.28 117.66L270.28 117.66L107.18 117.66z" /></clipPath><clipPath id="33"><path id="" clip-rule="evenodd" transform="matrix(1 0 0 1 0 0)" d="M107.18 135.66L270.28 135.66L270.28 135.66L270.28 117.66L270.28 117.66L107.18 117.66z" /></clipPath><clipPath id="34"><path id="" clip-rule="evenodd" transform="matrix(1 0 0 1 0 0)" d="M270.29 135.66L341.474 135.66L341.474 135.66L341.474 117.66L341.474 117.66L270.29 117.66z" /></clipPath><clipPath id="35"><path id="" clip-rule="evenodd" transform="matrix(1 0 0 1 0 0)" d="M270.29 135.66L341.474 135.66L341.474 135.66L341.474 117.66L341.474 117.66L270.29 117.66z" /></clipPath><clipPath id="36"><path id="" clip-rule="evenodd" transform="matrix(1 0 0 1 0 0)" d="M270.29 135.66L341.474 135.66L341.474 135.66L341.474 117.66L341.474 117.66L270.29 117.66z" /></clipPath><clipPath id="37"><path id="" clip-rule="evenodd" transform="matrix(1 0 0 1 0 0)" d="M341.47 135.66L468.21 135.66L468.21 135.66L468.21 117.66L468.21 117.66L341.47 117.66z" /></clipPath><clipPath id="38"><path id="" clip-rule="evenodd" transform="matrix(1 0 0 1 0 0)" d="M341.47 135.66L468.21 135.66L468.21 135.66L468.21 117.66L468.21 117.66L341.47 117.66z" /></clipPath><clipPath id="39"><path id="" clip-rule="evenodd" transform="matrix(1 0 0 1 0 0)" d="M341.47 135.66L468.21 135.66L468.21 135.66L468.21 117.66L468.21 117.66L341.47 117.66z" /></clipPath><clipPath id="40"><path id="" clip-rule="evenodd" transform="matrix(1 0 0 1 0 0)" d="M341.47 135.66L468.21 135.66L468.21 135.66L468.21 117.66L468.21 117.66L341.47 117.66z" /></clipPath><clipPath id="41"><path id="" clip-rule="evenodd" transform="matrix(1 0 0 1 0 0)" d="M341.47 135.66L468.21 135.66L468.21 135.66L468.21 117.66L468.21 117.66L341.47 117.66z" /></clipPath><clipPath id="42"><path id="" clip-rule="evenodd" transform="matrix(1 0 0 1 0 0)" d="M36.6 153.66L107.184 153.66L107.184 153.66L107.184 135.66L107.184 135.66L36.6 135.66z" /></clipPath><clipPath id="43"><path id="" clip-rule="evenodd" transform="matrix(1 0 0 1 0 0)" d="M36.6 153.66L107.184 153.66L107.184 153.66L107.184 135.66L107.184 135.66L36.6 135.66z" /></clipPath><clipPath id="44"><path id="" clip-rule="evenodd" transform="matrix(1 0 0 1 0 0)" d="M36.6 153.66L107.184 153.66L107.184 153.66L107.184 135.66L107.184 135.66L36.6 135.66z" /></clipPath><clipPath id="45"><path id="" clip-rule="evenodd" transform="matrix(1 0 0 1 0 0)" d="M36.6 153.66L107.184 153.66L107.184 153.66L107.184 135.66L107.184 135.66L36.6 135.66z" /></clipPath><clipPath id="46"><path id="" clip-rule="evenodd" transform="matrix(1 0 0 1 0 0)" d="M36.6 153.66L107.184 153.66L107.184 153.66L107.184 135.66L107.184 135.66L36.6 135.66z" /></clipPath><clipPath id="47"><path id="" clip-rule="evenodd" transform="matrix(1 0 0 1 0 0)" d="M107.18 153.66L270.28 153.66L270.28 153.66L270.28 135.66L270.28 135.66L107.18 135.66z" /></clipPath><clipPath id="48"><path id="" clip-rule="evenodd" transform="matrix(1 0 0 1 0 0)" d="M107.18 153.66L270.28 153.66L270.28 153.66L270.28 135.66L270.28 135.66L107.18 135.66z" /></clipPath><clipPath id="49"><path id="" clip-rule="evenodd" transform="matrix(1 0 0 1 0 0)" d="M107.18 153.66L270.28 153.66L270.28 153.66L270.28 135.66L270.28 135.66L107.18 135.66z" /></clipPath><clipPath id="50"><path id="" clip-rule="evenodd" transform="matrix(1 0 0 1 0 0)" d="M270.29 153.66L341.474 153.66L341.474 153.66L341.474 135.66L341.474 135.66L270.29 135.66z" /></clipPath><clipPath id="51"><path id="" clip-rule="evenodd" transform="matrix(1 0 0 1 0 0)" d="M270.29 153.66L341.474 153.66L341.474 153.66L341.474 135.66L341.474 135.66L270.29 135.66z" /></clipPath><clipPath id="52"><path id="" clip-rule="evenodd" transform="matrix(1 0 0 1 0 0)" d="M270.29 153.66L341.474 153.66L341.474 153.66L341.474 135.66L341.474 135.66L270.29 135.66z" /></clipPath><clipPath id="53"><path id="" clip-rule="evenodd" transform="matrix(1 0 0 1 0 0)" d="M270.29 153.66L341.474 153.66L341.474 153.66L341.474 135.66L341.474 135.66L270.29 135.66z" /></clipPath><clipPath id="54"><path id="" clip-rule="evenodd" transform="matrix(1 0 0 1 0 0)" d="M270.29 153.66L341.474 153.66L341.474 153.66L341.474 135.66L341.474 135.66L270.29 135.66z" /></clipPath><clipPath id="55"><path id="" clip-rule="evenodd" transform="matrix(1 0 0 1 0 0)" d="M341.47 153.66L468.21 153.66L468.21 153.66L468.21 135.66L468.21 135.66L341.47 135.66z" /></clipPath><clipPath id="56"><path id="" clip-rule="evenodd" transform="matrix(1 0 0 1 0 0)" d="M341.47 153.66L468.21 153.66L468.21 153.66L468.21 135.66L468.21 135.66L341.47 135.66z" /></clipPath><clipPath id="57"><path id="" clip-rule="evenodd" transform="matrix(1 0 0 1 0 0)" d="M341.47 153.66L468.21 153.66L468.21 153.66L468.21 135.66L468.21 135.66L341.47 135.66z" /></clipPath><clipPath id="58"><path id="" clip-rule="evenodd" transform="matrix(1 0 0 1 0 0)" d="M36.6 180.66L107.184 180.66L107.184 180.66L107.184 153.66L107.184 153.66L36.6 153.66z" /></clipPath><clipPath id="59"><path id="" clip-rule="evenodd" transform="matrix(1 0 0 1 0 0)" d="M36.6 180.66L107.184 180.66L107.184 180.66L107.184 153.66L107.184 153.66L36.6 153.66z" /></clipPath><clipPath id="60"><path id="" clip-rule="evenodd" transform="matrix(1 0 0 1 0 0)" d="M36.6 180.66L107.184 180.66L107.184 180.66L107.184 153.66L107.184 153.66L36.6 153.66z" /></clipPath><clipPath id="61"><path id="" clip-rule="evenodd" transform="matrix(1 0 0 1 0 0)" d="M36.6 180.66L107.184 180.66L107.184 180.66L107.184 153.66L107.184 153.66L36.6 153.66z" /></clipPath><clipPath id="62"><path id="" clip-rule="evenodd" transform="matrix(1 0 0 1 0 0)" d="M36.6 180.66L107.184 180.66L107.184 180.66L107.184 153.66L107.184 153.66L36.6 153.66z" /></clipPath><clipPath id="63"><path id="" clip-rule="evenodd" transform="matrix(1 0 0 1 0 0)" d="M107.18 180.66L270.28 180.66L270.28 180.66L270.28 153.66L270.28 153.66L107.18 153.66z" /></clipPath><clipPath id="64"><path id="" clip-rule="evenodd" transform="matrix(1 0 0 1 0 0)" d="M107.18 180.66L270.28 180.66L270.28 180.66L270.28 153.66L270.28 153.66L107.18 153.66z" /></clipPath><clipPath id="65"><path id="" clip-rule="evenodd" transform="matrix(1 0 0 1 0 0)" d="M107.18 180.66L270.28 180.66L270.28 180.66L270.28 153.66L270.28 153.66L107.18 153.66z" /></clipPath><clipPath id="66"><path id="" clip-rule="evenodd" transform="matrix(1 0 0 1 0 0)" d="M107.18 180.66L270.28 180.66L270.28 180.66L270.28 153.66L270.28 153.66L107.18 153.66z" /></clipPath><clipPath id="67"><path id="" clip-rule="evenodd" transform="matrix(1 0 0 1 0 0)" d="M107.18 180.66L270.28 180.66L270.28 180.66L270.28 153.66L270.28 153.66L107.18 153.66z" /></clipPath><clipPath id="68"><path id="" clip-rule="evenodd" transform="matrix(1 0 0 1 0 0)" d="M107.18 180.66L270.28 180.66L270.28 180.66L270.28 153.66L270.28 153.66L107.18 153.66z" /></clipPath><clipPath id="69"><path id="" clip-rule="evenodd" transform="matrix(1 0 0 1 0 0)" d="M107.18 180.66L270.28 180.66L270.28 180.66L270.28 153.66L270.28 153.66L107.18 153.66z" /></clipPath><clipPath id="70"><path id="" clip-rule="evenodd" transform="matrix(1 0 0 1 0 0)" d="M270.29 180.66L341.474 180.66L341.474 180.66L341.474 153.66L341.474 153.66L270.29 153.66z" /></clipPath><clipPath id="71"><path id="" clip-rule="evenodd" transform="matrix(1 0 0 1 0 0)" d="M270.29 180.66L341.474 180.66L341.474 180.66L341.474 153.66L341.474 153.66L270.29 153.66z" /></clipPath><clipPath id="72"><path id="" clip-rule="evenodd" transform="matrix(1 0 0 1 0 0)" d="M270.29 180.66L341.474 180.66L341.474 180.66L341.474 153.66L341.474 153.66L270.29 153.66z" /></clipPath><clipPath id="73"><path id="" clip-rule="evenodd" transform="matrix(1 0 0 1 0 0)" d="M270.29 180.66L341.474 180.66L341.474 180.66L341.474 153.66L341.474 153.66L270.29 153.66z" /></clipPath><clipPath id="74"><path id="" clip-rule="evenodd" transform="matrix(1 0 0 1 0 0)" d="M341.47 180.66L468.21 180.66L468.21 180.66L468.21 153.66L468.21 153.66L341.47 153.66z" /></clipPath><clipPath id="75"><path id="" clip-rule="evenodd" transform="matrix(1 0 0 1 0 0)" d="M341.47 180.66L468.21 180.66L468.21 180.66L468.21 153.66L468.21 153.66L341.47 153.66z" /></clipPath><clipPath id="76"><path id="" clip-rule="evenodd" transform="matrix(1 0 0 1 0 0)" d="M341.47 180.66L468.21 180.66L468.21 180.66L468.21 153.66L468.21 153.66L341.47 153.66z" /></clipPath><clipPath id="77"><path id="" clip-rule="evenodd" transform="matrix(1 0 0 1 0 0)" d="M341.47 180.66L468.21 180.66L468.21 180.66L468.21 153.66L468.21 153.66L341.47 153.66z" /></clipPath><clipPath id="78"><path id="" clip-rule="evenodd" transform="matrix(1 0 0 1 0 0)" d="M341.47 180.66L468.21 180.66L468.21 180.66L468.21 153.66L468.21 153.66L341.47 153.66z" /></clipPath><clipPath id="79"><path id="" clip-rule="evenodd" transform="matrix(1 0 0 1 0 0)" d="M341.47 180.66L468.21 180.66L468.21 180.66L468.21 153.66L468.21 153.66L341.47 153.66z" /></clipPath><clipPath id="80"><path id="" clip-rule="evenodd" transform="matrix(1 0 0 1 0 0)" d="M36.6 193.26L558.8199 193.26L558.8199 193.26L558.8199 180.66L558.8199 180.66L36.6 180.66z" /></clipPath><clipPath id="81"><path id="" clip-rule="evenodd" transform="matrix(1 0 0 1 0 0)" d="M36.6 193.26L558.8199 193.26L558.8199 193.26L558.8199 180.66L558.8199 180.66L36.6 180.66z" /></clipPath><clipPath id="82"><path id="" clip-rule="evenodd" transform="matrix(1 0 0 1 0 0)" d="M36.6 213.3L107.184 213.3L107.184 213.3L107.184 193.26L107.184 193.26L36.6 193.26z" /></clipPath><clipPath id="83"><path id="" clip-rule="evenodd" transform="matrix(1 0 0 1 0 0)" d="M36.6 213.3L107.184 213.3L107.184 213.3L107.184 193.26L107.184 193.26L36.6 193.26z" /></clipPath><clipPath id="84"><path id="" clip-rule="evenodd" transform="matrix(1 0 0 1 0 0)" d="M36.6 213.3L107.184 213.3L107.184 213.3L107.184 193.26L107.184 193.26L36.6 193.26z" /></clipPath><clipPath id="85"><path id="" clip-rule="evenodd" transform="matrix(1 0 0 1 0 0)" d="M107.18 213.3L558.81 213.3L558.81 213.3L558.81 193.26L558.81 193.26L107.18 193.26z" /></clipPath><clipPath id="86"><path id="" clip-rule="evenodd" transform="matrix(1 0 0 1 0 0)" d="M107.18 213.3L558.81 213.3L558.81 213.3L558.81 193.26L558.81 193.26L107.18 193.26z" /></clipPath><clipPath id="87"><path id="" clip-rule="evenodd" transform="matrix(1 0 0 1 0 0)" d="M36.6 221.94L558.8199 221.94L558.8199 221.94L558.8199 213.3L558.8199 213.3L36.6 213.3z" /></clipPath><clipPath id="88"><path id="" clip-rule="evenodd" transform="matrix(1 0 0 1 0 0)" d="M36.6 221.94L558.8199 221.94L558.8199 221.94L558.8199 213.3L558.8199 213.3L36.6 213.3z" /></clipPath><clipPath id="89"><path id="" clip-rule="evenodd" transform="matrix(1 0 0 1 0 0)" d="M36.6 257.1L558.8199 257.1L558.8199 257.1L558.8199 221.94L558.8199 221.94L36.6 221.94z" /></clipPath><clipPath id="90"><path id="" clip-rule="evenodd" transform="matrix(1 0 0 1 0 0)" d="M36.6 257.1L558.8199 257.1L558.8199 257.1L558.8199 221.94L558.8199 221.94L36.6 221.94z" /></clipPath><clipPath id="91"><path id="" clip-rule="evenodd" transform="matrix(1 0 0 1 0 0)" d="M36.6 257.1L558.8199 257.1L558.8199 257.1L558.8199 221.94L558.8199 221.94L36.6 221.94z" /></clipPath><clipPath id="92"><path id="" clip-rule="evenodd" transform="matrix(1 0 0 1 0 0)" d="M36.6 257.1L558.8199 257.1L558.8199 257.1L558.8199 221.94L558.8199 221.94L36.6 221.94z" /></clipPath><clipPath id="93"><path id="" clip-rule="evenodd" transform="matrix(1 0 0 1 0 0)" d="M36.6 257.1L558.8199 257.1L558.8199 257.1L558.8199 221.94L558.8199 221.94L36.6 221.94z" /></clipPath><clipPath id="94"><path id="" clip-rule="evenodd" transform="matrix(1 0 0 1 0 0)" d="M36.6 257.1L558.8199 257.1L558.8199 257.1L558.8199 221.94L558.8199 221.94L36.6 221.94z" /></clipPath><clipPath id="95"><path id="" clip-rule="evenodd" transform="matrix(1 0 0 1 0 0)" d="M36.6 257.1L558.8199 257.1L558.8199 257.1L558.8199 221.94L558.8199 221.94L36.6 221.94z" /></clipPath><clipPath id="96"><path id="" clip-rule="evenodd" transform="matrix(1 0 0 1 0 0)" d="M36.6 257.1L558.8199 257.1L558.8199 257.1L558.8199 221.94L558.8199 221.94L36.6 221.94z" /></clipPath><clipPath id="97"><path id="" clip-rule="evenodd" transform="matrix(1 0 0 1 0 0)" d="M36.6 257.1L558.8199 257.1L558.8199 257.1L558.8199 221.94L558.8199 221.94L36.6 221.94z" /></clipPath><clipPath id="98"><path id="" clip-rule="evenodd" transform="matrix(1 0 0 1 0 0)" d="M36.6 257.1L558.8199 257.1L558.8199 257.1L558.8199 221.94L558.8199 221.94L36.6 221.94z" /></clipPath><clipPath id="99"><path id="" clip-rule="evenodd" transform="matrix(1 0 0 1 0 0)" d="M36.6 257.1L558.8199 257.1L558.8199 257.1L558.8199 221.94L558.8199 221.94L36.6 221.94z" /></clipPath><clipPath id="100"><path id="" clip-rule="evenodd" transform="matrix(1 0 0 1 0 0)" d="M36.6 257.1L558.8199 257.1L558.8199 257.1L558.8199 221.94L558.8199 221.94L36.6 221.94z" /></clipPath><clipPath id="101"><path id="" clip-rule="evenodd" transform="matrix(1 0 0 1 0 0)" d="M36.6 257.1L558.8199 257.1L558.8199 257.1L558.8199 221.94L558.8199 221.94L36.6 221.94z" /></clipPath><clipPath id="102"><path id="" clip-rule="evenodd" transform="matrix(1 0 0 1 0 0)" d="M36.6 257.1L558.8199 257.1L558.8199 257.1L558.8199 221.94L558.8199 221.94L36.6 221.94z" /></clipPath><clipPath id="103"><path id="" clip-rule="evenodd" transform="matrix(1 0 0 1 0 0)" d="M36.6 257.1L558.8199 257.1L558.8199 257.1L558.8199 221.94L558.8199 221.94L36.6 221.94z" /></clipPath><clipPath id="104"><path id="" clip-rule="evenodd" transform="matrix(1 0 0 1 0 0)" d="M36.6 257.1L558.8199 257.1L558.8199 257.1L558.8199 221.94L558.8199 221.94L36.6 221.94z" /></clipPath><clipPath id="105"><path id="" clip-rule="evenodd" transform="matrix(1 0 0 1 0 0)" d="M36.6 257.1L558.8199 257.1L558.8199 257.1L558.8199 221.94L558.8199 221.94L36.6 221.94z" /></clipPath><clipPath id="106"><path id="" clip-rule="evenodd" transform="matrix(1 0 0 1 0 0)" d="M36.6 257.1L558.8199 257.1L558.8199 257.1L558.8199 221.94L558.8199 221.94L36.6 221.94z" /></clipPath><clipPath id="107"><path id="" clip-rule="evenodd" transform="matrix(1 0 0 1 0 0)" d="M36.6 257.1L558.8199 257.1L558.8199 257.1L558.8199 221.94L558.8199 221.94L36.6 221.94z" /></clipPath><clipPath id="108"><path id="" clip-rule="evenodd" transform="matrix(1 0 0 1 0 0)" d="M36.6 257.1L558.8199 257.1L558.8199 257.1L558.8199 221.94L558.8199 221.94L36.6 221.94z" /></clipPath><clipPath id="109"><path id="" clip-rule="evenodd" transform="matrix(1 0 0 1 0 0)" d="M36.6 257.1L558.8199 257.1L558.8199 257.1L558.8199 221.94L558.8199 221.94L36.6 221.94z" /></clipPath><clipPath id="110"><path id="" clip-rule="evenodd" transform="matrix(1 0 0 1 0 0)" d="M36.6 257.1L558.8199 257.1L558.8199 257.1L558.8199 221.94L558.8199 221.94L36.6 221.94z" /></clipPath><clipPath id="111"><path id="" clip-rule="evenodd" transform="matrix(1 0 0 1 0 0)" d="M36.6 257.1L558.8199 257.1L558.8199 257.1L558.8199 221.94L558.8199 221.94L36.6 221.94z" /></clipPath><clipPath id="112"><path id="" clip-rule="evenodd" transform="matrix(1 0 0 1 0 0)" d="M36.6 257.1L558.8199 257.1L558.8199 257.1L558.8199 221.94L558.8199 221.94L36.6 221.94z" /></clipPath><clipPath id="113"><path id="" clip-rule="evenodd" transform="matrix(1 0 0 1 0 0)" d="M36.6 257.1L558.8199 257.1L558.8199 257.1L558.8199 221.94L558.8199 221.94L36.6 221.94z" /></clipPath><clipPath id="114"><path id="" clip-rule="evenodd" transform="matrix(1 0 0 1 0 0)" d="M36.6 257.1L558.8199 257.1L558.8199 257.1L558.8199 221.94L558.8199 221.94L36.6 221.94z" /></clipPath><clipPath id="115"><path id="" clip-rule="evenodd" transform="matrix(1 0 0 1 0 0)" d="M36.6 257.1L558.8199 257.1L558.8199 257.1L558.8199 221.94L558.8199 221.94L36.6 221.94z" /></clipPath><clipPath id="116"><path id="" clip-rule="evenodd" transform="matrix(1 0 0 1 0 0)" d="M36.6 257.1L558.8199 257.1L558.8199 257.1L558.8199 221.94L558.8199 221.94L36.6 221.94z" /></clipPath><clipPath id="117"><path id="" clip-rule="evenodd" transform="matrix(1 0 0 1 0 0)" d="M36.6 257.1L558.8199 257.1L558.8199 257.1L558.8199 221.94L558.8199 221.94L36.6 221.94z" /></clipPath><clipPath id="118"><path id="" clip-rule="evenodd" transform="matrix(1 0 0 1 0 0)" d="M36.6 257.1L558.8199 257.1L558.8199 257.1L558.8199 221.94L558.8199 221.94L36.6 221.94z" /></clipPath><clipPath id="119"><path id="" clip-rule="evenodd" transform="matrix(1 0 0 1 0 0)" d="M36.6 257.1L558.8199 257.1L558.8199 257.1L558.8199 221.94L558.8199 221.94L36.6 221.94z" /></clipPath><clipPath id="120"><path id="" clip-rule="evenodd" transform="matrix(1 0 0 1 0 0)" d="M36.6 257.1L558.8199 257.1L558.8199 257.1L558.8199 221.94L558.8199 221.94L36.6 221.94z" /></clipPath><clipPath id="121"><path id="" clip-rule="evenodd" transform="matrix(1 0 0 1 0 0)" d="M36.6 257.1L558.8199 257.1L558.8199 257.1L558.8199 221.94L558.8199 221.94L36.6 221.94z" /></clipPath><clipPath id="122"><path id="" clip-rule="evenodd" transform="matrix(1 0 0 1 0 0)" d="M36.6 257.1L558.8199 257.1L558.8199 257.1L558.8199 221.94L558.8199 221.94L36.6 221.94z" /></clipPath><clipPath id="123"><path id="" clip-rule="evenodd" transform="matrix(1 0 0 1 0 0)" d="M36.6 257.1L558.8199 257.1L558.8199 257.1L558.8199 221.94L558.8199 221.94L36.6 221.94z" /></clipPath><clipPath id="124"><path id="" clip-rule="evenodd" transform="matrix(1 0 0 1 0 0)" d="M36.6 257.1L558.8199 257.1L558.8199 257.1L558.8199 221.94L558.8199 221.94L36.6 221.94z" /></clipPath><clipPath id="125"><path id="" clip-rule="evenodd" transform="matrix(1 0 0 1 0 0)" d="M36.6 257.1L558.8199 257.1L558.8199 257.1L558.8199 221.94L558.8199 221.94L36.6 221.94z" /></clipPath><clipPath id="126"><path id="" clip-rule="evenodd" transform="matrix(1 0 0 1 0 0)" d="M36.6 257.1L558.8199 257.1L558.8199 257.1L558.8199 221.94L558.8199 221.94L36.6 221.94z" /></clipPath><clipPath id="127"><path id="" clip-rule="evenodd" transform="matrix(1 0 0 1 0 0)" d="M36.6 257.1L558.8199 257.1L558.8199 257.1L558.8199 221.94L558.8199 221.94L36.6 221.94z" /></clipPath><clipPath id="128"><path id="" clip-rule="evenodd" transform="matrix(1 0 0 1 0 0)" d="M36.6 257.1L558.8199 257.1L558.8199 257.1L558.8199 221.94L558.8199 221.94L36.6 221.94z" /></clipPath><clipPath id="129"><path id="" clip-rule="evenodd" transform="matrix(1 0 0 1 0 0)" d="M36.6 257.1L558.8199 257.1L558.8199 257.1L558.8199 221.94L558.8199 221.94L36.6 221.94z" /></clipPath><clipPath id="130"><path id="" clip-rule="evenodd" transform="matrix(1 0 0 1 0 0)" d="M36.6 257.1L558.8199 257.1L558.8199 257.1L558.8199 221.94L558.8199 221.94L36.6 221.94z" /></clipPath><clipPath id="131"><path id="" clip-rule="evenodd" transform="matrix(1 0 0 1 0 0)" d="M36.6 257.1L558.8199 257.1L558.8199 257.1L558.8199 221.94L558.8199 221.94L36.6 221.94z" /></clipPath><clipPath id="132"><path id="" clip-rule="evenodd" transform="matrix(1 0 0 1 0 0)" d="M36.6 257.1L558.8199 257.1L558.8199 257.1L558.8199 221.94L558.8199 221.94L36.6 221.94z" /></clipPath><clipPath id="133"><path id="" clip-rule="evenodd" transform="matrix(1 0 0 1 0 0)" d="M36.6 265.62L558.8199 265.62L558.8199 265.62L558.8199 257.1L558.8199 257.1L36.6 257.1z" /></clipPath><clipPath id="134"><path id="" clip-rule="evenodd" transform="matrix(1 0 0 1 0 0)" d="M36.6 265.62L558.8199 265.62L558.8199 265.62L558.8199 257.1L558.8199 257.1L36.6 257.1z" /></clipPath><clipPath id="135"><path id="" clip-rule="evenodd" transform="matrix(1 0 0 1 0 0)" d="M36.6 285.69L107.184 285.69L107.184 285.69L107.184 265.626L107.184 265.626L36.6 265.626z" /></clipPath><clipPath id="136"><path id="" clip-rule="evenodd" transform="matrix(1 0 0 1 0 0)" d="M36.6 285.69L107.184 285.69L107.184 285.69L107.184 265.626L107.184 265.626L36.6 265.626z" /></clipPath><clipPath id="137"><path id="" clip-rule="evenodd" transform="matrix(1 0 0 1 0 0)" d="M36.6 285.69L107.184 285.69L107.184 285.69L107.184 265.626L107.184 265.626L36.6 265.626z" /></clipPath><clipPath id="138"><path id="" clip-rule="evenodd" transform="matrix(1 0 0 1 0 0)" d="M36.6 285.69L107.184 285.69L107.184 285.69L107.184 265.626L107.184 265.626L36.6 265.626z" /></clipPath><clipPath id="139"><path id="" clip-rule="evenodd" transform="matrix(1 0 0 1 0 0)" d="M107.18 285.69L558.81 285.69L558.81 285.69L558.81 265.626L558.81 265.626L107.18 265.626z" /></clipPath><clipPath id="140"><path id="" clip-rule="evenodd" transform="matrix(1 0 0 1 0 0)" d="M107.18 285.69L558.81 285.69L558.81 285.69L558.81 265.626L558.81 265.626L107.18 265.626z" /></clipPath><clipPath id="141"><path id="" clip-rule="evenodd" transform="matrix(1 0 0 1 0 0)" d="M36.6 294.21L558.8199 294.21L558.8199 294.21L558.8199 285.69L558.8199 285.69L36.6 285.69z" /></clipPath><clipPath id="142"><path id="" clip-rule="evenodd" transform="matrix(1 0 0 1 0 0)" d="M36.6 294.21L558.8199 294.21L558.8199 294.21L558.8199 285.69L558.8199 285.69L36.6 285.69z" /></clipPath><clipPath id="143"><path id="" clip-rule="evenodd" transform="matrix(1 0 0 1 0 0)" d="M36.6 415.89L558.8199 415.89L558.8199 415.89L558.8199 294.21L558.8199 294.21L36.6 294.21z" /></clipPath><clipPath id="144"><path id="" clip-rule="evenodd" transform="matrix(1 0 0 1 0 0)" d="M36.6 415.89L558.8199 415.89L558.8199 415.89L558.8199 294.21L558.8199 294.21L36.6 294.21z" /></clipPath><clipPath id="145"><path id="" clip-rule="evenodd" transform="matrix(1 0 0 1 0 0)" d="M36.6 415.89L558.8199 415.89L558.8199 415.89L558.8199 294.21L558.8199 294.21L36.6 294.21z" /></clipPath><clipPath id="146"><path id="" clip-rule="evenodd" transform="matrix(1 0 0 1 0 0)" d="M36.6 415.89L558.8199 415.89L558.8199 415.89L558.8199 294.21L558.8199 294.21L36.6 294.21z" /></clipPath><clipPath id="147"><path id="" clip-rule="evenodd" transform="matrix(1 0 0 1 0 0)" d="M36.6 415.89L558.8199 415.89L558.8199 415.89L558.8199 294.21L558.8199 294.21L36.6 294.21z" /></clipPath><clipPath id="148"><path id="" clip-rule="evenodd" transform="matrix(1 0 0 1 0 0)" d="M36.6 415.89L558.8199 415.89L558.8199 415.89L558.8199 294.21L558.8199 294.21L36.6 294.21z" /></clipPath><clipPath id="149"><path id="" clip-rule="evenodd" transform="matrix(1 0 0 1 0 0)" d="M36.6 415.89L558.8199 415.89L558.8199 415.89L558.8199 294.21L558.8199 294.21L36.6 294.21z" /></clipPath><clipPath id="150"><path id="" clip-rule="evenodd" transform="matrix(1 0 0 1 0 0)" d="M36.6 415.89L558.8199 415.89L558.8199 415.89L558.8199 294.21L558.8199 294.21L36.6 294.21z" /></clipPath><clipPath id="151"><path id="" clip-rule="evenodd" transform="matrix(1 0 0 1 0 0)" d="M36.6 415.89L558.8199 415.89L558.8199 415.89L558.8199 294.21L558.8199 294.21L36.6 294.21z" /></clipPath><clipPath id="152"><path id="" clip-rule="evenodd" transform="matrix(1 0 0 1 0 0)" d="M36.6 415.89L558.8199 415.89L558.8199 415.89L558.8199 294.21L558.8199 294.21L36.6 294.21z" /></clipPath><clipPath id="153"><path id="" clip-rule="evenodd" transform="matrix(1 0 0 1 0 0)" d="M36.6 415.89L558.8199 415.89L558.8199 415.89L558.8199 294.21L558.8199 294.21L36.6 294.21z" /></clipPath><clipPath id="154"><path id="" clip-rule="evenodd" transform="matrix(1 0 0 1 0 0)" d="M36.6 415.89L558.8199 415.89L558.8199 415.89L558.8199 294.21L558.8199 294.21L36.6 294.21z" /></clipPath><clipPath id="155"><path id="" clip-rule="evenodd" transform="matrix(1 0 0 1 0 0)" d="M36.6 415.89L558.8199 415.89L558.8199 415.89L558.8199 294.21L558.8199 294.21L36.6 294.21z" /></clipPath><clipPath id="156"><path id="" clip-rule="evenodd" transform="matrix(1 0 0 1 0 0)" d="M36.6 415.89L558.8199 415.89L558.8199 415.89L558.8199 294.21L558.8199 294.21L36.6 294.21z" /></clipPath><clipPath id="157"><path id="" clip-rule="evenodd" transform="matrix(1 0 0 1 0 0)" d="M36.6 415.89L558.8199 415.89L558.8199 415.89L558.8199 294.21L558.8199 294.21L36.6 294.21z" /></clipPath><clipPath id="158"><path id="" clip-rule="evenodd" transform="matrix(1 0 0 1 0 0)" d="M36.6 415.89L558.8199 415.89L558.8199 415.89L558.8199 294.21L558.8199 294.21L36.6 294.21z" /></clipPath><clipPath id="159"><path id="" clip-rule="evenodd" transform="matrix(1 0 0 1 0 0)" d="M36.6 415.89L558.8199 415.89L558.8199 415.89L558.8199 294.21L558.8199 294.21L36.6 294.21z" /></clipPath><clipPath id="160"><path id="" clip-rule="evenodd" transform="matrix(1 0 0 1 0 0)" d="M36.6 415.89L558.8199 415.89L558.8199 415.89L558.8199 294.21L558.8199 294.21L36.6 294.21z" /></clipPath><clipPath id="161"><path id="" clip-rule="evenodd" transform="matrix(1 0 0 1 0 0)" d="M36.6 415.89L558.8199 415.89L558.8199 415.89L558.8199 294.21L558.8199 294.21L36.6 294.21z" /></clipPath><clipPath id="162"><path id="" clip-rule="evenodd" transform="matrix(1 0 0 1 0 0)" d="M36.6 415.89L558.8199 415.89L558.8199 415.89L558.8199 294.21L558.8199 294.21L36.6 294.21z" /></clipPath><clipPath id="163"><path id="" clip-rule="evenodd" transform="matrix(1 0 0 1 0 0)" d="M36.6 415.89L558.8199 415.89L558.8199 415.89L558.8199 294.21L558.8199 294.21L36.6 294.21z" /></clipPath><clipPath id="164"><path id="" clip-rule="evenodd" transform="matrix(1 0 0 1 0 0)" d="M36.6 415.89L558.8199 415.89L558.8199 415.89L558.8199 294.21L558.8199 294.21L36.6 294.21z" /></clipPath><clipPath id="165"><path id="" clip-rule="evenodd" transform="matrix(1 0 0 1 0 0)" d="M36.6 415.89L558.8199 415.89L558.8199 415.89L558.8199 294.21L558.8199 294.21L36.6 294.21z" /></clipPath><clipPath id="166"><path id="" clip-rule="evenodd" transform="matrix(1 0 0 1 0 0)" d="M36.6 415.89L558.8199 415.89L558.8199 415.89L558.8199 294.21L558.8199 294.21L36.6 294.21z" /></clipPath><clipPath id="167"><path id="" clip-rule="evenodd" transform="matrix(1 0 0 1 0 0)" d="M36.6 415.89L558.8199 415.89L558.8199 415.89L558.8199 294.21L558.8199 294.21L36.6 294.21z" /></clipPath><clipPath id="168"><path id="" clip-rule="evenodd" transform="matrix(1 0 0 1 0 0)" d="M36.6 415.89L558.8199 415.89L558.8199 415.89L558.8199 294.21L558.8199 294.21L36.6 294.21z" /></clipPath><clipPath id="169"><path id="" clip-rule="evenodd" transform="matrix(1 0 0 1 0 0)" d="M36.6 415.89L558.8199 415.89L558.8199 415.89L558.8199 294.21L558.8199 294.21L36.6 294.21z" /></clipPath><clipPath id="170"><path id="" clip-rule="evenodd" transform="matrix(1 0 0 1 0 0)" d="M36.6 415.89L558.8199 415.89L558.8199 415.89L558.8199 294.21L558.8199 294.21L36.6 294.21z" /></clipPath><clipPath id="171"><path id="" clip-rule="evenodd" transform="matrix(1 0 0 1 0 0)" d="M36.6 415.89L558.8199 415.89L558.8199 415.89L558.8199 294.21L558.8199 294.21L36.6 294.21z" /></clipPath><clipPath id="172"><path id="" clip-rule="evenodd" transform="matrix(1 0 0 1 0 0)" d="M36.6 435.93L107.184 435.93L107.184 435.93L107.184 415.89L107.184 415.89L36.6 415.89z" /></clipPath><clipPath id="173"><path id="" clip-rule="evenodd" transform="matrix(1 0 0 1 0 0)" d="M36.6 435.93L107.184 435.93L107.184 435.93L107.184 415.89L107.184 415.89L36.6 415.89z" /></clipPath><clipPath id="174"><path id="" clip-rule="evenodd" transform="matrix(1 0 0 1 0 0)" d="M36.6 435.93L107.184 435.93L107.184 435.93L107.184 415.89L107.184 415.89L36.6 415.89z" /></clipPath><clipPath id="175"><path id="" clip-rule="evenodd" transform="matrix(1 0 0 1 0 0)" d="M36.6 435.93L107.184 435.93L107.184 435.93L107.184 415.89L107.184 415.89L36.6 415.89z" /></clipPath><clipPath id="176"><path id="" clip-rule="evenodd" transform="matrix(1 0 0 1 0 0)" d="M107.18 435.93L558.81 435.93L558.81 435.93L558.81 415.89L558.81 415.89L107.18 415.89z" /></clipPath><clipPath id="177"><path id="" clip-rule="evenodd" transform="matrix(1 0 0 1 0 0)" d="M107.18 435.93L558.81 435.93L558.81 435.93L558.81 415.89L558.81 415.89L107.18 415.89z" /></clipPath><clipPath id="178"><path id="" clip-rule="evenodd" transform="matrix(1 0 0 1 0 0)" d="M36.6 804.736L558.8199 804.736L558.8199 804.736L558.8199 435.926L558.8199 435.926L36.6 435.926z" /></clipPath><clipPath id="179"><path id="" clip-rule="evenodd" transform="matrix(1 0 0 1 0 0)" d="M36.6 804.736L558.8199 804.736L558.8199 804.736L558.8199 435.926L558.8199 435.926L36.6 435.926z" /></clipPath><clipPath id="180"><path id="" clip-rule="evenodd" transform="matrix(1 0 0 1 0 0)" d="M36.6 804.736L558.8199 804.736L558.8199 804.736L558.8199 435.926L558.8199 435.926L36.6 435.926z" /></clipPath><clipPath id="181"><path id="" clip-rule="evenodd" transform="matrix(1 0 0 1 0 0)" d="M36.6 804.736L558.8199 804.736L558.8199 804.736L558.8199 435.926L558.8199 435.926L36.6 435.926z" /></clipPath><clipPath id="182"><path id="" clip-rule="evenodd" transform="matrix(1 0 0 1 0 0)" d="M36.6 804.736L558.8199 804.736L558.8199 804.736L558.8199 435.926L558.8199 435.926L36.6 435.926z" /></clipPath><clipPath id="183"><path id="" clip-rule="evenodd" transform="matrix(1 0 0 1 0 0)" d="M36.6 804.736L558.8199 804.736L558.8199 804.736L558.8199 435.926L558.8199 435.926L36.6 435.926z" /></clipPath><clipPath id="184"><path id="" clip-rule="evenodd" transform="matrix(1 0 0 1 0 0)" d="M36.6 804.736L558.8199 804.736L558.8199 804.736L558.8199 435.926L558.8199 435.926L36.6 435.926z" /></clipPath><clipPath id="185"><path id="" clip-rule="evenodd" transform="matrix(1 0 0 1 0 0)" d="M36.6 804.736L558.8199 804.736L558.8199 804.736L558.8199 435.926L558.8199 435.926L36.6 435.926z" /></clipPath><clipPath id="186"><path id="" clip-rule="evenodd" transform="matrix(1 0 0 1 0 0)" d="M36.6 804.736L558.8199 804.736L558.8199 804.736L558.8199 435.926L558.8199 435.926L36.6 435.926z" /></clipPath><clipPath id="187"><path id="" clip-rule="evenodd" transform="matrix(1 0 0 1 0 0)" d="M36.6 804.736L558.8199 804.736L558.8199 804.736L558.8199 435.926L558.8199 435.926L36.6 435.926z" /></clipPath><clipPath id="188"><path id="" clip-rule="evenodd" transform="matrix(1 0 0 1 0 0)" d="M36.6 804.736L558.8199 804.736L558.8199 804.736L558.8199 435.926L558.8199 435.926L36.6 435.926z" /></clipPath><clipPath id="189"><path id="" clip-rule="evenodd" transform="matrix(1 0 0 1 0 0)" d="M36.6 804.736L558.8199 804.736L558.8199 804.736L558.8199 435.926L558.8199 435.926L36.6 435.926z" /></clipPath><clipPath id="190"><path id="" clip-rule="evenodd" transform="matrix(1 0 0 1 0 0)" d="M36.6 804.736L558.8199 804.736L558.8199 804.736L558.8199 435.926L558.8199 435.926L36.6 435.926z" /></clipPath><clipPath id="191"><path id="" clip-rule="evenodd" transform="matrix(1 0 0 1 0 0)" d="M36.6 804.736L558.8199 804.736L558.8199 804.736L558.8199 435.926L558.8199 435.926L36.6 435.926z" /></clipPath><clipPath id="192"><path id="" clip-rule="evenodd" transform="matrix(1 0 0 1 0 0)" d="M36.6 804.736L558.8199 804.736L558.8199 804.736L558.8199 435.926L558.8199 435.926L36.6 435.926z" /></clipPath><clipPath id="193"><path id="" clip-rule="evenodd" transform="matrix(1 0 0 1 0 0)" d="M36.6 804.736L558.8199 804.736L558.8199 804.736L558.8199 435.926L558.8199 435.926L36.6 435.926z" /></clipPath><clipPath id="194"><path id="" clip-rule="evenodd" transform="matrix(1 0 0 1 0 0)" d="M36.6 804.736L558.8199 804.736L558.8199 804.736L558.8199 435.926L558.8199 435.926L36.6 435.926z" /></clipPath><clipPath id="195"><path id="" clip-rule="evenodd" transform="matrix(1 0 0 1 0 0)" d="M36.6 804.736L558.8199 804.736L558.8199 804.736L558.8199 435.926L558.8199 435.926L36.6 435.926z" /></clipPath><clipPath id="196"><path id="" clip-rule="evenodd" transform="matrix(1 0 0 1 0 0)" d="M36.6 804.736L558.8199 804.736L558.8199 804.736L558.8199 435.926L558.8199 435.926L36.6 435.926z" /></clipPath><clipPath id="197"><path id="" clip-rule="evenodd" transform="matrix(1 0 0 1 0 0)" d="M36.6 804.736L558.8199 804.736L558.8199 804.736L558.8199 435.926L558.8199 435.926L36.6 435.926z" /></clipPath><clipPath id="198"><path id="" clip-rule="evenodd" transform="matrix(1 0 0 1 0 0)" d="M36.6 804.736L558.8199 804.736L558.8199 804.736L558.8199 435.926L558.8199 435.926L36.6 435.926z" /></clipPath><clipPath id="199"><path id="" clip-rule="evenodd" transform="matrix(1 0 0 1 0 0)" d="M36.6 804.736L558.8199 804.736L558.8199 804.736L558.8199 435.926L558.8199 435.926L36.6 435.926z" /></clipPath><clipPath id="200"><path id="" clip-rule="evenodd" transform="matrix(1 0 0 1 0 0)" d="M36.6 804.736L558.8199 804.736L558.8199 804.736L558.8199 435.926L558.8199 435.926L36.6 435.926z" /></clipPath><clipPath id="201"><path id="" clip-rule="evenodd" transform="matrix(1 0 0 1 0 0)" d="M36.6 804.736L558.8199 804.736L558.8199 804.736L558.8199 435.926L558.8199 435.926L36.6 435.926z" /></clipPath><clipPath id="202"><path id="" clip-rule="evenodd" transform="matrix(1 0 0 1 0 0)" d="M36.6 804.736L558.8199 804.736L558.8199 804.736L558.8199 435.926L558.8199 435.926L36.6 435.926z" /></clipPath><clipPath id="203"><path id="" clip-rule="evenodd" transform="matrix(1 0 0 1 0 0)" d="M36.6 804.736L558.8199 804.736L558.8199 804.736L558.8199 435.926L558.8199 435.926L36.6 435.926z" /></clipPath><clipPath id="204"><path id="" clip-rule="evenodd" transform="matrix(1 0 0 1 0 0)" d="M36.6 804.736L558.8199 804.736L558.8199 804.736L558.8199 435.926L558.8199 435.926L36.6 435.926z" /></clipPath><clipPath id="205"><path id="" clip-rule="evenodd" transform="matrix(1 0 0 1 0 0)" d="M36.6 804.736L558.8199 804.736L558.8199 804.736L558.8199 435.926L558.8199 435.926L36.6 435.926z" /></clipPath><clipPath id="206"><path id="" clip-rule="evenodd" transform="matrix(1 0 0 1 0 0)" d="M36.6 804.736L558.8199 804.736L558.8199 804.736L558.8199 435.926L558.8199 435.926L36.6 435.926z" /></clipPath><clipPath id="207"><path id="" clip-rule="evenodd" transform="matrix(1 0 0 1 0 0)" d="M36.6 804.736L558.8199 804.736L558.8199 804.736L558.8199 435.926L558.8199 435.926L36.6 435.926z" /></clipPath><clipPath id="208"><path id="" clip-rule="evenodd" transform="matrix(1 0 0 1 0 0)" d="M36.6 804.736L558.8199 804.736L558.8199 804.736L558.8199 435.926L558.8199 435.926L36.6 435.926z" /></clipPath><clipPath id="209"><path id="" clip-rule="evenodd" transform="matrix(1 0 0 1 0 0)" d="M36.6 804.736L558.8199 804.736L558.8199 804.736L558.8199 435.926L558.8199 435.926L36.6 435.926z" /></clipPath><clipPath id="210"><path id="" clip-rule="evenodd" transform="matrix(1 0 0 1 0 0)" d="M36.6 804.736L558.8199 804.736L558.8199 804.736L558.8199 435.926L558.8199 435.926L36.6 435.926z" /></clipPath><clipPath id="211"><path id="" clip-rule="evenodd" transform="matrix(1 0 0 1 0 0)" d="M36.6 804.736L558.8199 804.736L558.8199 804.736L558.8199 435.926L558.8199 435.926L36.6 435.926z" /></clipPath><clipPath id="212"><path id="" clip-rule="evenodd" transform="matrix(1 0 0 1 0 0)" d="M36.6 804.736L558.8199 804.736L558.8199 804.736L558.8199 435.926L558.8199 435.926L36.6 435.926z" /></clipPath><clipPath id="213"><path id="" clip-rule="evenodd" transform="matrix(1 0 0 1 0 0)" d="M36.6 804.736L558.8199 804.736L558.8199 804.736L558.8199 435.926L558.8199 435.926L36.6 435.926z" /></clipPath><clipPath id="214"><path id="" clip-rule="evenodd" transform="matrix(1 0 0 1 0 0)" d="M36.6 804.736L558.8199 804.736L558.8199 804.736L558.8199 435.926L558.8199 435.926L36.6 435.926z" /></clipPath><clipPath id="215"><path id="" clip-rule="evenodd" transform="matrix(1 0 0 1 0 0)" d="M36.6 804.736L558.8199 804.736L558.8199 804.736L558.8199 435.926L558.8199 435.926L36.6 435.926z" /></clipPath><clipPath id="216"><path id="" clip-rule="evenodd" transform="matrix(1 0 0 1 0 0)" d="M36.6 804.736L558.8199 804.736L558.8199 804.736L558.8199 435.926L558.8199 435.926L36.6 435.926z" /></clipPath><clipPath id="217"><path id="" clip-rule="evenodd" transform="matrix(1 0 0 1 0 0)" d="M36.6 804.736L558.8199 804.736L558.8199 804.736L558.8199 435.926L558.8199 435.926L36.6 435.926z" /></clipPath><clipPath id="218"><path id="" clip-rule="evenodd" transform="matrix(1 0 0 1 0 0)" d="M36.6 804.736L558.8199 804.736L558.8199 804.736L558.8199 435.926L558.8199 435.926L36.6 435.926z" /></clipPath><clipPath id="219"><path id="" clip-rule="evenodd" transform="matrix(1 0 0 1 0 0)" d="M36.6 804.736L558.8199 804.736L558.8199 804.736L558.8199 435.926L558.8199 435.926L36.6 435.926z" /></clipPath><clipPath id="220"><path id="" clip-rule="evenodd" transform="matrix(1 0 0 1 0 0)" d="M36.6 804.736L558.8199 804.736L558.8199 804.736L558.8199 435.926L558.8199 435.926L36.6 435.926z" /></clipPath><clipPath id="221"><path id="" clip-rule="evenodd" transform="matrix(1 0 0 1 0 0)" d="M36.6 804.736L558.8199 804.736L558.8199 804.736L558.8199 435.926L558.8199 435.926L36.6 435.926z" /></clipPath><clipPath id="222"><path id="" clip-rule="evenodd" transform="matrix(1 0 0 1 0 0)" d="M36.6 804.736L558.8199 804.736L558.8199 804.736L558.8199 435.926L558.8199 435.926L36.6 435.926z" /></clipPath><clipPath id="223"><path id="" clip-rule="evenodd" transform="matrix(1 0 0 1 0 0)" d="M36.6 804.736L558.8199 804.736L558.8199 804.736L558.8199 435.926L558.8199 435.926L36.6 435.926z" /></clipPath><clipPath id="224"><path id="" clip-rule="evenodd" transform="matrix(1 0 0 1 0 0)" d="M36.6 804.736L558.8199 804.736L558.8199 804.736L558.8199 435.926L558.8199 435.926L36.6 435.926z" /></clipPath><clipPath id="225"><path id="" clip-rule="evenodd" transform="matrix(1 0 0 1 0 0)" d="M36.6 804.736L558.8199 804.736L558.8199 804.736L558.8199 435.926L558.8199 435.926L36.6 435.926z" /></clipPath><clipPath id="226"><path id="" clip-rule="evenodd" transform="matrix(1 0 0 1 0 0)" d="M36.6 804.736L558.8199 804.736L558.8199 804.736L558.8199 435.926L558.8199 435.926L36.6 435.926z" /></clipPath><clipPath id="227"><path id="" clip-rule="evenodd" transform="matrix(1 0 0 1 0 0)" d="M36.6 804.736L558.8199 804.736L558.8199 804.736L558.8199 435.926L558.8199 435.926L36.6 435.926z" /></clipPath><clipPath id="228"><path id="" clip-rule="evenodd" transform="matrix(1 0 0 1 0 0)" d="M36.6 804.736L558.8199 804.736L558.8199 804.736L558.8199 435.926L558.8199 435.926L36.6 435.926z" /></clipPath><clipPath id="229"><path id="" clip-rule="evenodd" transform="matrix(1 0 0 1 0 0)" d="M36.6 804.736L558.8199 804.736L558.8199 804.736L558.8199 435.926L558.8199 435.926L36.6 435.926z" /></clipPath><clipPath id="230"><path id="" clip-rule="evenodd" transform="matrix(1 0 0 1 0 0)" d="M36.6 804.736L558.8199 804.736L558.8199 804.736L558.8199 435.926L558.8199 435.926L36.6 435.926z" /></clipPath><clipPath id="231"><path id="" clip-rule="evenodd" transform="matrix(1 0 0 1 0 0)" d="M36.6 804.736L558.8199 804.736L558.8199 804.736L558.8199 435.926L558.8199 435.926L36.6 435.926z" /></clipPath><clipPath id="232"><path id="" clip-rule="evenodd" transform="matrix(1 0 0 1 0 0)" d="M36.6 804.736L558.8199 804.736L558.8199 804.736L558.8199 435.926L558.8199 435.926L36.6 435.926z" /></clipPath><clipPath id="233"><path id="" clip-rule="evenodd" transform="matrix(1 0 0 1 0 0)" d="M36.6 804.736L558.8199 804.736L558.8199 804.736L558.8199 435.926L558.8199 435.926L36.6 435.926z" /></clipPath><clipPath id="234"><path id="" clip-rule="evenodd" transform="matrix(1 0 0 1 0 0)" d="M36.6 804.736L558.8199 804.736L558.8199 804.736L558.8199 435.926L558.8199 435.926L36.6 435.926z" /></clipPath><clipPath id="235"><path id="" clip-rule="evenodd" transform="matrix(1 0 0 1 0 0)" d="M36.6 804.736L558.8199 804.736L558.8199 804.736L558.8199 435.926L558.8199 435.926L36.6 435.926z" /></clipPath><clipPath id="236"><path id="" clip-rule="evenodd" transform="matrix(1 0 0 1 0 0)" d="M36.6 804.736L558.8199 804.736L558.8199 804.736L558.8199 435.926L558.8199 435.926L36.6 435.926z" /></clipPath><clipPath id="237"><path id="" clip-rule="evenodd" transform="matrix(1 0 0 1 0 0)" d="M36.6 804.736L558.8199 804.736L558.8199 804.736L558.8199 435.926L558.8199 435.926L36.6 435.926z" /></clipPath><clipPath id="238"><path id="" clip-rule="evenodd" transform="matrix(1 0 0 1 0 0)" d="M36.6 804.736L558.8199 804.736L558.8199 804.736L558.8199 435.926L558.8199 435.926L36.6 435.926z" /></clipPath><clipPath id="239"><path id="" clip-rule="evenodd" transform="matrix(1 0 0 1 0 0)" d="M36.6 804.736L558.8199 804.736L558.8199 804.736L558.8199 435.926L558.8199 435.926L36.6 435.926z" /></clipPath><clipPath id="240"><path id="" clip-rule="evenodd" transform="matrix(1 0 0 1 0 0)" d="M36.6 804.736L558.8199 804.736L558.8199 804.736L558.8199 435.926L558.8199 435.926L36.6 435.926z" /></clipPath><clipPath id="241"><path id="" clip-rule="evenodd" transform="matrix(1 0 0 1 0 0)" d="M36.6 804.736L558.8199 804.736L558.8199 804.736L558.8199 435.926L558.8199 435.926L36.6 435.926z" /></clipPath><clipPath id="242"><path id="" clip-rule="evenodd" transform="matrix(1 0 0 1 0 0)" d="M36.6 804.736L558.8199 804.736L558.8199 804.736L558.8199 435.926L558.8199 435.926L36.6 435.926z" /></clipPath><clipPath id="243"><path id="" clip-rule="evenodd" transform="matrix(1 0 0 1 0 0)" d="M36.6 804.736L558.8199 804.736L558.8199 804.736L558.8199 435.926L558.8199 435.926L36.6 435.926z" /></clipPath><clipPath id="244"><path id="" clip-rule="evenodd" transform="matrix(1 0 0 1 0 0)" d="M36.6 804.736L558.8199 804.736L558.8199 804.736L558.8199 435.926L558.8199 435.926L36.6 435.926z" /></clipPath><clipPath id="245"><path id="" clip-rule="evenodd" transform="matrix(1 0 0 1 0 0)" d="M36.6 804.736L558.8199 804.736L558.8199 804.736L558.8199 435.926L558.8199 435.926L36.6 435.926z" /></clipPath><clipPath id="246"><path id="" clip-rule="evenodd" transform="matrix(1 0 0 1 0 0)" d="M36.6 804.736L558.8199 804.736L558.8199 804.736L558.8199 435.926L558.8199 435.926L36.6 435.926z" /></clipPath><clipPath id="247"><path id="" clip-rule="evenodd" transform="matrix(1 0 0 1 0 0)" d="M36.6 804.736L558.8199 804.736L558.8199 804.736L558.8199 435.926L558.8199 435.926L36.6 435.926z" /></clipPath><clipPath id="248"><path id="" clip-rule="evenodd" transform="matrix(1 0 0 1 0 0)" d="M36.6 804.736L558.8199 804.736L558.8199 804.736L558.8199 435.926L558.8199 435.926L36.6 435.926z" /></clipPath><clipPath id="249"><path id="" clip-rule="evenodd" transform="matrix(1 0 0 1 0 0)" d="M36.6 804.736L558.8199 804.736L558.8199 804.736L558.8199 435.926L558.8199 435.926L36.6 435.926z" /></clipPath><clipPath id="250"><path id="" clip-rule="evenodd" transform="matrix(1 0 0 1 0 0)" d="M36.6 804.736L558.8199 804.736L558.8199 804.736L558.8199 435.926L558.8199 435.926L36.6 435.926z" /></clipPath><clipPath id="251"><path id="" clip-rule="evenodd" transform="matrix(1 0 0 1 0 0)" d="M36.6 804.736L558.8199 804.736L558.8199 804.736L558.8199 435.926L558.8199 435.926L36.6 435.926z" /></clipPath><clipPath id="252"><path id="" clip-rule="evenodd" transform="matrix(1 0 0 1 0 0)" d="M36.6 804.736L558.8199 804.736L558.8199 804.736L558.8199 435.926L558.8199 435.926L36.6 435.926z" /></clipPath><clipPath id="253"><path id="" clip-rule="evenodd" transform="matrix(1 0 0 1 0 0)" d="M36.6 804.736L558.8199 804.736L558.8199 804.736L558.8199 435.926L558.8199 435.926L36.6 435.926z" /></clipPath><clipPath id="254"><path id="" clip-rule="evenodd" transform="matrix(1 0 0 1 0 0)" d="M36.6 804.736L558.8199 804.736L558.8199 804.736L558.8199 435.926L558.8199 435.926L36.6 435.926z" /></clipPath><clipPath id="255"><path id="" clip-rule="evenodd" transform="matrix(1 0 0 1 0 0)" d="M36.6 804.736L558.8199 804.736L558.8199 804.736L558.8199 435.926L558.8199 435.926L36.6 435.926z" /></clipPath><clipPath id="256"><path id="" clip-rule="evenodd" transform="matrix(1 0 0 1 0 0)" d="M36.6 804.736L558.8199 804.736L558.8199 804.736L558.8199 435.926L558.8199 435.926L36.6 435.926z" /></clipPath><clipPath id="257"><path id="" clip-rule="evenodd" transform="matrix(1 0 0 1 0 0)" d="M36.6 804.736L558.8199 804.736L558.8199 804.736L558.8199 435.926L558.8199 435.926L36.6 435.926z" /></clipPath><clipPath id="258"><path id="" clip-rule="evenodd" transform="matrix(1 0 0 1 0 0)" d="M36.6 804.736L558.8199 804.736L558.8199 804.736L558.8199 435.926L558.8199 435.926L36.6 435.926z" /></clipPath><clipPath id="259"><path id="" clip-rule="evenodd" transform="matrix(1 0 0 1 0 0)" d="M36.6 804.736L558.8199 804.736L558.8199 804.736L558.8199 435.926L558.8199 435.926L36.6 435.926z" /></clipPath><clipPath id="260"><path id="" clip-rule="evenodd" transform="matrix(1 0 0 1 0 0)" d="M36.6 804.736L558.8199 804.736L558.8199 804.736L558.8199 435.926L558.8199 435.926L36.6 435.926z" /></clipPath><clipPath id="261"><path id="" clip-rule="evenodd" transform="matrix(1 0 0 1 0 0)" d="M36.6 804.736L558.8199 804.736L558.8199 804.736L558.8199 435.926L558.8199 435.926L36.6 435.926z" /></clipPath><clipPath id="262"><path id="" clip-rule="evenodd" transform="matrix(1 0 0 1 0 0)" d="M36.6 804.736L558.8199 804.736L558.8199 804.736L558.8199 435.926L558.8199 435.926L36.6 435.926z" /></clipPath><clipPath id="263"><path id="" clip-rule="evenodd" transform="matrix(1 0 0 1 0 0)" d="M36.6 804.736L558.8199 804.736L558.8199 804.736L558.8199 435.926L558.8199 435.926L36.6 435.926z" /></clipPath><clipPath id="264"><path id="" clip-rule="evenodd" transform="matrix(1 0 0 1 0 0)" d="M36.6 804.736L558.8199 804.736L558.8199 804.736L558.8199 435.926L558.8199 435.926L36.6 435.926z" /></clipPath><clipPath id="265"><path id="" clip-rule="evenodd" transform="matrix(1 0 0 1 0 0)" d="M36.6 804.736L558.8199 804.736L558.8199 804.736L558.8199 435.926L558.8199 435.926L36.6 435.926z" /></clipPath><clipPath id="266"><path id="" clip-rule="evenodd" transform="matrix(1 0 0 1 0 0)" d="M36.6 804.736L558.8199 804.736L558.8199 804.736L558.8199 435.926L558.8199 435.926L36.6 435.926z" /></clipPath><clipPath id="267"><path id="" clip-rule="evenodd" transform="matrix(1 0 0 1 0 0)" d="M36.6 804.736L558.8199 804.736L558.8199 804.736L558.8199 435.926L558.8199 435.926L36.6 435.926z" /></clipPath><clipPath id="268"><path id="" clip-rule="evenodd" transform="matrix(1 0 0 1 0 0)" d="M36.6 804.736L558.8199 804.736L558.8199 804.736L558.8199 435.926L558.8199 435.926L36.6 435.926z" /></clipPath><clipPath id="269"><path id="" clip-rule="evenodd" transform="matrix(1 0 0 1 0 0)" d="M36.6 804.736L558.8199 804.736L558.8199 804.736L558.8199 435.926L558.8199 435.926L36.6 435.926z" /></clipPath><clipPath id="270"><path id="" clip-rule="evenodd" transform="matrix(1 0 0 1 0 0)" d="M36.6 804.736L558.8199 804.736L558.8199 804.736L558.8199 435.926L558.8199 435.926L36.6 435.926z" /></clipPath><clipPath id="271"><path id="" clip-rule="evenodd" transform="matrix(1 0 0 1 0 0)" d="M36.6 804.736L558.8199 804.736L558.8199 804.736L558.8199 435.926L558.8199 435.926L36.6 435.926z" /></clipPath><clipPath id="272"><path id="" clip-rule="evenodd" transform="matrix(1 0 0 1 0 0)" d="M36.6 804.736L558.8199 804.736L558.8199 804.736L558.8199 435.926L558.8199 435.926L36.6 435.926z" /></clipPath><clipPath id="273"><path id="" clip-rule="evenodd" transform="matrix(1 0 0 1 0 0)" d="M36.6 804.736L558.8199 804.736L558.8199 804.736L558.8199 435.926L558.8199 435.926L36.6 435.926z" /></clipPath><clipPath id="274"><path id="" clip-rule="evenodd" transform="matrix(1 0 0 1 0 0)" d="M36.6 804.736L558.8199 804.736L558.8199 804.736L558.8199 435.926L558.8199 435.926L36.6 435.926z" /></clipPath><clipPath id="275"><path id="" clip-rule="evenodd" transform="matrix(1 0 0 1 0 0)" d="M36.6 804.736L558.8199 804.736L558.8199 804.736L558.8199 435.926L558.8199 435.926L36.6 435.926z" /></clipPath><clipPath id="276"><path id="" clip-rule="evenodd" transform="matrix(1 0 0 1 0 0)" d="M36.6 804.736L558.8199 804.736L558.8199 804.736L558.8199 435.926L558.8199 435.926L36.6 435.926z" /></clipPath><clipPath id="277"><path id="" clip-rule="evenodd" transform="matrix(1 0 0 1 0 0)" d="M36.6 804.736L558.8199 804.736L558.8199 804.736L558.8199 435.926L558.8199 435.926L36.6 435.926z" /></clipPath><clipPath id="278"><path id="" clip-rule="evenodd" transform="matrix(1 0 0 1 0 0)" d="M36.6 804.736L558.8199 804.736L558.8199 804.736L558.8199 435.926L558.8199 435.926L36.6 435.926z" /></clipPath><clipPath id="279"><path id="" clip-rule="evenodd" transform="matrix(1 0 0 1 0 0)" d="M36.6 804.736L558.8199 804.736L558.8199 804.736L558.8199 435.926L558.8199 435.926L36.6 435.926z" /></clipPath><clipPath id="280"><path id="" clip-rule="evenodd" transform="matrix(1 0 0 1 0 0)" d="M36.6 804.736L558.8199 804.736L558.8199 804.736L558.8199 435.926L558.8199 435.926L36.6 435.926z" /></clipPath><clipPath id="281"><path id="" clip-rule="evenodd" transform="matrix(1 0 0 1 0 0)" d="M36.6 804.736L558.8199 804.736L558.8199 804.736L558.8199 435.926L558.8199 435.926L36.6 435.926z" /></clipPath><clipPath id="282"><path id="" clip-rule="evenodd" transform="matrix(1 0 0 1 0 0)" d="M36.6 804.736L558.8199 804.736L558.8199 804.736L558.8199 435.926L558.8199 435.926L36.6 435.926z" /></clipPath><clipPath id="283"><path id="" clip-rule="evenodd" transform="matrix(1 0 0 1 0 0)" d="M36.6 804.736L558.8199 804.736L558.8199 804.736L558.8199 435.926L558.8199 435.926L36.6 435.926z" /></clipPath><clipPath id="284"><path id="" clip-rule="evenodd" transform="matrix(1 0 0 1 0 0)" d="M36.6 804.736L558.8199 804.736L558.8199 804.736L558.8199 435.926L558.8199 435.926L36.6 435.926z" /></clipPath><clipPath id="285"><path id="" clip-rule="evenodd" transform="matrix(1 0 0 1 0 0)" d="M36.6 804.736L558.8199 804.736L558.8199 804.736L558.8199 435.926L558.8199 435.926L36.6 435.926z" /></clipPath><clipPath id="286"><path id="" clip-rule="evenodd" transform="matrix(1 0 0 1 0 0)" d="M36.6 804.736L558.8199 804.736L558.8199 804.736L558.8199 435.926L558.8199 435.926L36.6 435.926z" /></clipPath><clipPath id="287"><path id="" clip-rule="evenodd" transform="matrix(1 0 0 1 0 0)" d="M36.6 804.736L558.8199 804.736L558.8199 804.736L558.8199 435.926L558.8199 435.926L36.6 435.926z" /></clipPath><clipPath id="288"><path id="" clip-rule="evenodd" transform="matrix(1 0 0 1 0 0)" d="M36.6 804.736L558.8199 804.736L558.8199 804.736L558.8199 435.926L558.8199 435.926L36.6 435.926z" /></clipPath><clipPath id="289"><path id="" clip-rule="evenodd" transform="matrix(1 0 0 1 0 0)" d="M36.6 804.736L558.8199 804.736L558.8199 804.736L558.8199 435.926L558.8199 435.926L36.6 435.926z" /></clipPath><clipPath id="290"><path id="" clip-rule="evenodd" transform="matrix(1 0 0 1 0 0)" d="M36.6 804.736L558.8199 804.736L558.8199 804.736L558.8199 435.926L558.8199 435.926L36.6 435.926z" /></clipPath><clipPath id="291"><path id="" clip-rule="evenodd" transform="matrix(1 0 0 1 0 0)" d="M36.6 804.736L558.8199 804.736L558.8199 804.736L558.8199 435.926L558.8199 435.926L36.6 435.926z" /></clipPath><clipPath id="292"><path id="" clip-rule="evenodd" transform="matrix(1 0 0 1 0 0)" d="M36.6 804.736L558.8199 804.736L558.8199 804.736L558.8199 435.926L558.8199 435.926L36.6 435.926z" /></clipPath><clipPath id="293"><path id="" clip-rule="evenodd" transform="matrix(1 0 0 1 0 0)" d="M36.6 804.736L558.8199 804.736L558.8199 804.736L558.8199 435.926L558.8199 435.926L36.6 435.926z" /></clipPath><clipPath id="294"><path id="" clip-rule="evenodd" transform="matrix(1 0 0 1 0 0)" d="M36.6 804.736L558.8199 804.736L558.8199 804.736L558.8199 435.926L558.8199 435.926L36.6 435.926z" /></clipPath><clipPath id="295"><path id="" clip-rule="evenodd" transform="matrix(1 0 0 1 0 0)" d="M36.6 804.736L558.8199 804.736L558.8199 804.736L558.8199 435.926L558.8199 435.926L36.6 435.926z" /></clipPath><clipPath id="296"><path id="" clip-rule="evenodd" transform="matrix(1 0 0 1 0 0)" d="M36.6 804.736L558.8199 804.736L558.8199 804.736L558.8199 435.926L558.8199 435.926L36.6 435.926z" /></clipPath><clipPath id="297"><path id="" clip-rule="evenodd" transform="matrix(1 0 0 1 0 0)" d="M36.6 804.736L558.8199 804.736L558.8199 804.736L558.8199 435.926L558.8199 435.926L36.6 435.926z" /></clipPath><clipPath id="298"><path id="" clip-rule="evenodd" transform="matrix(1 0 0 1 0 0)" d="M36.6 804.736L558.8199 804.736L558.8199 804.736L558.8199 435.926L558.8199 435.926L36.6 435.926z" /></clipPath><clipPath id="299"><path id="" clip-rule="evenodd" transform="matrix(1 0 0 1 0 0)" d="M473.55 180.14L553.3 180.14L553.3 180.14L553.3 99.63904L553.3 99.63904L473.55 99.63904z" /></clipPath></defs><g transform="matrix(1.333333 0 0 1.333333 0 0)"><g clip-path="url(#1)"><g clip-path="url(#2)"><path id="1" transform="matrix(1 0 0 -1 0 841)" d="M0 0.12L595.3 0.12L595.3 0.12L595.3 841.92L595.3 841.92L0 841.92z" stroke="none" fill="#FFFFFF" fill-rule="evenodd" /></g><path id="2" transform="matrix(1 0 0 -1 0 841)" d="M36.6 758.88L558.8199 758.88L558.8199 758.88L558.8199 813.6L558.8199 813.6L36.6 813.6z" stroke="none" fill="#D9D9D9" fill-rule="evenodd" /><g clip-path="url(#3)"><path id="3" transform="matrix(1 0 0 -1 0 841)" d="M42 758.88L553.42 758.88L553.42 758.88L553.42 813.6L553.42 813.6L42 813.6z" stroke="none" fill="#D9D9D9" fill-rule="evenodd" /></g><g clip-path="url(#4)"><g transform="matrix(0.3596009 0 0 0.3596273 216.48 25.71997)"><g transform="matrix(1 0 0 1 0 0)"><image x="0" y="0" xlink:href="img_01.png" width="451" height="161" /></g></g></g><g clip-path="url(#5)"></g><g clip-path="url(#6)"></g><g clip-path="url(#7)"><g clip-path="url(#8)"></g></g><g clip-path="url(#9)"><g clip-path="url(#10)"></g><g clip-path="url(#11)"></g><g clip-path="url(#12)"></g><g clip-path="url(#13)"></g></g><g clip-path="url(#14)"><g clip-path="url(#15)"></g><g clip-path="url(#16)"></g></g><g clip-path="url(#17)"><g clip-path="url(#18)"></g><g clip-path="url(#19)"></g></g><g clip-path="url(#20)"><g clip-path="url(#21)"></g><g clip-path="url(#22)"></g><g clip-path="url(#23)"></g></g><g clip-path="url(#24)"><g clip-path="url(#25)"></g></g><g clip-path="url(#26)"><g clip-path="url(#27)"></g><g clip-path="url(#28)"></g><g clip-path="url(#29)"></g><g clip-path="url(#30)"></g></g><g clip-path="url(#31)"><g clip-path="url(#32)"></g><g clip-path="url(#33)"></g></g><g clip-path="url(#34)"><g clip-path="url(#35)"></g><g clip-path="url(#36)"></g></g><g clip-path="url(#37)"><g clip-path="url(#38)"></g><g clip-path="url(#39)"></g><g clip-path="url(#40)"></g><g clip-path="url(#41)"></g></g><g clip-path="url(#42)"><g clip-path="url(#43)"></g><g clip-path="url(#44)"></g><g clip-path="url(#45)"></g><g clip-path="url(#46)"></g></g><g clip-path="url(#47)"><g clip-path="url(#48)"></g><g clip-path="url(#49)"></g></g><g clip-path="url(#50)"><g clip-path="url(#51)"></g><g clip-path="url(#52)"></g><g clip-path="url(#53)"></g><g clip-path="url(#54)"></g></g><g clip-path="url(#55)"><g clip-path="url(#56)"></g><g clip-path="url(#57)"></g></g><g clip-path="url(#58)"><g clip-path="url(#59)"></g><g clip-path="url(#60)"></g><g clip-path="url(#61)"></g><g clip-path="url(#62)"></g></g><g clip-path="url(#63)"><g clip-path="url(#64)"></g><g clip-path="url(#65)"></g><g clip-path="url(#66)"></g><g clip-path="url(#67)"></g><g clip-path="url(#68)"></g><g clip-path="url(#69)"></g></g><g clip-path="url(#70)"><g clip-path="url(#71)"></g><g clip-path="url(#72)"></g><g clip-path="url(#73)"></g></g><g clip-path="url(#74)"><g clip-path="url(#75)"></g><g clip-path="url(#76)"></g><g clip-path="url(#77)"></g><g clip-path="url(#78)"></g><g clip-path="url(#79)"></g></g><g clip-path="url(#80)"><g clip-path="url(#81)"></g></g><path id="113" transform="matrix(1 0 0 -1 0 841)" d="M36.6 627.7L107.184 627.7L107.184 627.7L107.184 647.74L107.184 647.74L36.6 647.74z" stroke="none" fill="#414141" fill-rule="evenodd" /><g clip-path="url(#82)"><path id="114" transform="matrix(1 0 0 -1 0 841)" d="M42 627.7L101.784 627.7L101.784 627.7L101.784 647.74L101.784 647.74L42 647.74z" stroke="none" fill="#414141" fill-rule="evenodd" /><g clip-path="url(#83)"></g><g clip-path="url(#84)"></g></g><path id="119" transform="matrix(1 0 0 -1 0 841)" d="M107.18 627.7L558.81 627.7L558.81 627.7L558.81 647.74L558.81 647.74L107.18 647.74z" stroke="none" fill="#D9D9D9" fill-rule="evenodd" /><g clip-path="url(#85)"><path id="120" transform="matrix(1 0 0 -1 0 841)" d="M112.58 627.7L553.41 627.7L553.41 627.7L553.41 647.74L553.41 647.74L112.58 647.74z" stroke="none" fill="#D9D9D9" fill-rule="evenodd" /><g clip-path="url(#86)"></g></g><g clip-path="url(#87)"><g clip-path="url(#88)"></g></g><g clip-path="url(#89)"><g clip-path="url(#90)"></g><g clip-path="url(#91)"></g><g clip-path="url(#92)"></g><g clip-path="url(#93)"></g><g clip-path="url(#94)"></g><g clip-path="url(#95)"></g><g clip-path="url(#96)"></g><g clip-path="url(#97)"></g><g clip-path="url(#98)"></g><g clip-path="url(#99)"></g><g clip-path="url(#100)"></g><g clip-path="url(#101)"></g><g clip-path="url(#102)"></g><g clip-path="url(#103)"></g><g clip-path="url(#104)"></g><g clip-path="url(#105)"></g><g clip-path="url(#106)"></g><g clip-path="url(#107)"></g><g clip-path="url(#108)"></g><g clip-path="url(#109)"></g><g clip-path="url(#110)"></g><g clip-path="url(#111)"></g><g clip-path="url(#112)"></g><g clip-path="url(#113)"></g><g clip-path="url(#114)"></g><g clip-path="url(#115)"></g><g clip-path="url(#116)"></g><g clip-path="url(#117)"></g><g clip-path="url(#118)"></g><g clip-path="url(#119)"></g><g clip-path="url(#120)"></g><g clip-path="url(#121)"></g><g clip-path="url(#122)"></g><g clip-path="url(#123)"></g><g clip-path="url(#124)"></g><g clip-path="url(#125)"></g><g clip-path="url(#126)"></g><g clip-path="url(#127)"></g><g clip-path="url(#128)"></g><g clip-path="url(#129)"></g><g clip-path="url(#130)"></g><g clip-path="url(#131)"></g><g clip-path="url(#132)"></g></g><g clip-path="url(#133)"><g clip-path="url(#134)"></g></g><path id="209" transform="matrix(1 0 0 -1 0 841)" d="M36.6 555.31L107.184 555.31L107.184 555.31L107.184 575.374L107.184 575.374L36.6 575.374z" stroke="none" fill="#414141" fill-rule="evenodd" /><g clip-path="url(#135)"><path id="210" transform="matrix(1 0 0 -1 0 841)" d="M42 555.31L101.784 555.31L101.784 555.31L101.784 575.374L101.784 575.374L42 575.374z" stroke="none" fill="#414141" fill-rule="evenodd" /><g clip-path="url(#136)"></g><g clip-path="url(#137)"></g><g clip-path="url(#138)"></g></g><path id="215" transform="matrix(1 0 0 -1 0 841)" d="M107.18 555.31L558.81 555.31L558.81 555.31L558.81 575.374L558.81 575.374L107.18 575.374z" stroke="none" fill="#D9D9D9" fill-rule="evenodd" /><g clip-path="url(#139)"><path id="216" transform="matrix(1 0 0 -1 0 841)" d="M112.58 555.31L553.41 555.31L553.41 555.31L553.41 575.374L553.41 575.374L112.58 575.374z" stroke="none" fill="#D9D9D9" fill-rule="evenodd" /><g clip-path="url(#140)"></g></g><g clip-path="url(#141)"><g clip-path="url(#142)"></g></g><g clip-path="url(#143)"><g clip-path="url(#144)"></g><g clip-path="url(#145)"></g><g clip-path="url(#146)"></g><g clip-path="url(#147)"></g><g clip-path="url(#148)"></g><g clip-path="url(#149)"></g><g clip-path="url(#150)"></g><g clip-path="url(#151)"></g><g clip-path="url(#152)"></g><g clip-path="url(#153)"></g><g clip-path="url(#154)"></g><g clip-path="url(#155)"></g><g clip-path="url(#156)"></g><g clip-path="url(#157)"></g><g clip-path="url(#158)"></g><g clip-path="url(#159)"></g><g clip-path="url(#160)"></g><g clip-path="url(#161)"></g><g clip-path="url(#162)"></g><g clip-path="url(#163)"></g><g clip-path="url(#164)"></g><g clip-path="url(#165)"></g><g clip-path="url(#166)"></g><g clip-path="url(#167)"></g><g clip-path="url(#168)"></g><g clip-path="url(#169)"></g><g clip-path="url(#170)"></g><g clip-path="url(#171)"></g></g><path id="335" transform="matrix(1 0 0 -1 0 841)" d="M36.6 405.07L107.184 405.07L107.184 405.07L107.184 425.11L107.184 425.11L36.6 425.11z" stroke="none" fill="#414141" fill-rule="evenodd" /><g clip-path="url(#172)"><path id="336" transform="matrix(1 0 0 -1 0 841)" d="M42 405.07L101.784 405.07L101.784 405.07L101.784 425.11L101.784 425.11L42 425.11z" stroke="none" fill="#414141" fill-rule="evenodd" /><g clip-path="url(#173)"></g><g clip-path="url(#174)"></g><g clip-path="url(#175)"></g></g><path id="341" transform="matrix(1 0 0 -1 0 841)" d="M107.18 405.07L558.81 405.07L558.81 405.07L558.81 425.11L558.81 425.11L107.18 425.11z" stroke="none" fill="#D9D9D9" fill-rule="evenodd" /><g clip-path="url(#176)"><path id="342" transform="matrix(1 0 0 -1 0 841)" d="M112.58 405.07L553.41 405.07L553.41 405.07L553.41 425.11L553.41 425.11L112.58 425.11z" stroke="none" fill="#D9D9D9" fill-rule="evenodd" /><g clip-path="url(#177)"></g></g><g clip-path="url(#178)"><g clip-path="url(#179)"></g><g clip-path="url(#180)"></g><g clip-path="url(#181)"></g><g clip-path="url(#182)"></g><g clip-path="url(#183)"></g><g clip-path="url(#184)"></g><g clip-path="url(#185)"></g><g clip-path="url(#186)"></g><g clip-path="url(#187)"></g><g clip-path="url(#188)"></g><g clip-path="url(#189)"></g><g clip-path="url(#190)"></g><g clip-path="url(#191)"></g><g clip-path="url(#192)"></g><g clip-path="url(#193)"></g><g clip-path="url(#194)"></g><g clip-path="url(#195)"></g><g clip-path="url(#196)"></g><g clip-path="url(#197)"></g><g clip-path="url(#198)"></g><g clip-path="url(#199)"></g><g clip-path="url(#200)"></g><g clip-path="url(#201)"></g><g clip-path="url(#202)"></g><g clip-path="url(#203)"></g><g clip-path="url(#204)"></g><g clip-path="url(#205)"></g><g clip-path="url(#206)"></g><g clip-path="url(#207)"></g><g clip-path="url(#208)"></g><g clip-path="url(#209)"></g><g clip-path="url(#210)"></g><g clip-path="url(#211)"></g><g clip-path="url(#212)"></g><g clip-path="url(#213)"></g><g clip-path="url(#214)"></g><g clip-path="url(#215)"></g><g clip-path="url(#216)"></g><g clip-path="url(#217)"></g><g clip-path="url(#218)"></g><g clip-path="url(#219)"></g><g clip-path="url(#220)"></g><g clip-path="url(#221)"></g><g clip-path="url(#222)"></g><g clip-path="url(#223)"></g><g clip-path="url(#224)"></g><g clip-path="url(#225)"></g><g clip-path="url(#226)"></g><g clip-path="url(#227)"></g><g clip-path="url(#228)"></g><g clip-path="url(#229)"></g><g clip-path="url(#230)"></g><g clip-path="url(#231)"></g><g clip-path="url(#232)"></g><g clip-path="url(#233)"></g><g clip-path="url(#234)"></g><g clip-path="url(#235)"></g><g clip-path="url(#236)"></g><g clip-path="url(#237)"></g><g clip-path="url(#238)"></g><g clip-path="url(#239)"></g><g clip-path="url(#240)"></g><g clip-path="url(#241)"></g><g clip-path="url(#242)"></g><g clip-path="url(#243)"></g><g clip-path="url(#244)"></g><g clip-path="url(#245)"></g><g clip-path="url(#246)"></g><g clip-path="url(#247)"></g><g clip-path="url(#248)"></g><g clip-path="url(#249)"></g><g clip-path="url(#250)"></g><g clip-path="url(#251)"></g><g clip-path="url(#252)"></g><g clip-path="url(#253)"></g><g clip-path="url(#254)"></g><g clip-path="url(#255)"></g><g clip-path="url(#256)"></g><g clip-path="url(#257)"></g><g clip-path="url(#258)"></g><g clip-path="url(#259)"></g><g clip-path="url(#260)"></g><g clip-path="url(#261)"></g><g clip-path="url(#262)"></g><g clip-path="url(#263)"></g><g clip-path="url(#264)"></g><g clip-path="url(#265)"></g><g clip-path="url(#266)"></g><g clip-path="url(#267)"></g><g clip-path="url(#268)"></g><g clip-path="url(#269)"></g><g clip-path="url(#270)"></g><g clip-path="url(#271)"></g><g clip-path="url(#272)"></g><g clip-path="url(#273)"></g><g clip-path="url(#274)"></g><g clip-path="url(#275)"></g><g clip-path="url(#276)"></g><g clip-path="url(#277)"></g><g clip-path="url(#278)"></g><g clip-path="url(#279)"></g><g clip-path="url(#280)"></g><g clip-path="url(#281)"></g><g clip-path="url(#282)"></g><g clip-path="url(#283)"></g><g clip-path="url(#284)"></g><g clip-path="url(#285)"></g><g clip-path="url(#286)"></g><g clip-path="url(#287)"></g><g clip-path="url(#288)"></g><g clip-path="url(#289)"></g><g clip-path="url(#290)"></g><g clip-path="url(#291)"></g><g clip-path="url(#292)"></g><g clip-path="url(#293)"></g><g clip-path="url(#294)"></g><g clip-path="url(#295)"></g><g clip-path="url(#296)"></g><g clip-path="url(#297)"></g><g clip-path="url(#298)"></g></g><g clip-path="url(#299)"><g transform="matrix(0.4068877 0 0 0.4068182 473.55 99.59003)"><g transform="matrix(1 0 0 1 0 0)"><image x="0" y="0" xlink:href="img_02.png" width="196" height="198" /></g></g></g></g></g></svg>